<?xml version="1.0" encoding="UTF-8" standalone="no"?><!DOCTYPE svg PUBLIC "-//W3C//DTD SVG 1.1//EN" "http://www.w3.org/Graphics/SVG/1.1/DTD/svg11.dtd"><svg width="100%" height="100%" viewBox="0 0 524 523" version="1.1" xmlns="http://www.w3.org/2000/svg" xmlns:xlink="http://www.w3.org/1999/xlink" xml:space="preserve" xmlns:serif="http://www.serif.com/" style="fill-rule:evenodd;clip-rule:evenodd;stroke-linejoin:round;stroke-miterlimit:2;"><rect id="Batch-Icon" serif:id="Batch Icon" x="0.491" y="0" width="523" height="523" style="fill:none;"/><g><path d="M370.973,269.832c-10.264,-10.264 -26.93,-10.264 -37.194,0l-37.194,37.194c-10.264,10.264 -10.264,26.93 -0,37.194l66.414,66.414c10.264,10.264 26.93,10.264 37.194,-0l37.194,-37.194c10.264,-10.264 10.264,-26.93 -0,-37.194l-66.414,-66.414Z" style="fill:#fff;"/><path d="M370.973,269.832l66.414,66.414c10.264,10.264 10.264,26.93 -0,37.194l-37.194,37.194c-10.264,10.264 -26.93,10.264 -37.194,-0l-66.414,-66.414c-10.264,-10.264 -10.264,-26.93 -0,-37.194l37.194,-37.194c10.264,-10.264 26.93,-10.264 37.194,0Zm-7.495,7.496c-6.127,-6.128 -16.077,-6.128 -22.204,-0.001l-37.194,37.194c-6.127,6.128 -6.127,16.077 0,22.204l66.414,66.413c6.127,6.128 16.076,6.128 22.203,0l37.194,-37.194c6.128,-6.127 6.128,-16.076 0,-22.203l-66.413,-66.413Z" style="fill:#fff;"/><path d="M285.42,350.634c-8.953,-8.953 -23.49,-8.953 -32.443,0l-52.315,52.315c-8.953,8.953 -8.953,23.49 0,32.443l32.444,32.443c8.953,8.953 23.49,8.953 32.443,0l52.314,-52.314c8.953,-8.953 8.953,-23.49 0,-32.443l-32.443,-32.444Z" style="fill:#fff;"/><path d="M285.42,350.634l32.443,32.444c8.953,8.953 8.953,23.49 0,32.443l-52.314,52.314c-8.953,8.953 -23.49,8.953 -32.443,0l-32.444,-32.443c-8.953,-8.953 -8.953,-23.49 0,-32.443l52.315,-52.315c8.953,-8.953 23.49,-8.953 32.443,0Zm-7.495,7.496c-4.817,-4.816 -12.637,-4.816 -17.453,-0l-52.314,52.314c-4.817,4.816 -4.817,12.636 -0,17.453l32.443,32.443c4.816,4.816 12.636,4.816 17.453,-0l52.314,-52.314c4.816,-4.817 4.816,-12.637 -0,-17.453l-32.443,-32.443Z" style="fill:#fff;"/><path d="M207.535,272.749c-9.555,-9.555 -25.071,-9.555 -34.626,0l-104.813,104.813c-9.555,9.555 -9.555,25.071 0,34.626l34.626,34.626c9.555,9.555 25.071,9.555 34.626,-0l104.813,-104.813c9.555,-9.555 9.555,-25.07 -0,-34.626l-34.626,-34.626Z" style="fill:#fff;"/><path d="M207.535,272.749l34.626,34.626c9.555,9.556 9.555,25.071 -0,34.626l-104.813,104.813c-9.555,9.555 -25.071,9.555 -34.626,-0l-34.626,-34.626c-9.555,-9.555 -9.555,-25.071 0,-34.626l104.813,-104.813c9.555,-9.555 25.071,-9.555 34.626,0Zm-7.496,7.496c-5.418,-5.419 -14.216,-5.419 -19.635,-0l-104.813,104.812c-5.418,5.419 -5.418,14.217 0,19.636l34.626,34.626c5.419,5.418 14.217,5.418 19.636,-0l104.812,-104.813c5.419,-5.419 5.419,-14.217 0,-19.635l-34.626,-34.626Z" style="fill:#fff;"/><path d="M303.123,71.881l69.719,69.719c19.24,19.24 19.24,50.48 0,69.72l-69.719,69.719c-19.24,19.239 -50.48,19.239 -69.719,-0l-69.72,-69.719c-19.239,-19.24 -19.239,-50.48 0,-69.72l69.72,-69.719c19.239,-19.24 50.479,-19.24 69.719,-0Zm-51.85,74.952l0,106.66l33.764,0l0,-106.66l44.889,44.889l23.875,-23.875l-85.646,-85.646l-85.646,85.646l23.875,23.875l44.889,-44.889Z" style="fill:#fff;"/><path d="M303.123,71.881l69.719,69.719c19.24,19.24 19.24,50.48 0,69.72l-69.719,69.719c-19.24,19.239 -50.48,19.239 -69.719,-0l-69.72,-69.719c-19.239,-19.24 -19.239,-50.48 0,-69.72l69.72,-69.719c19.239,-19.24 50.479,-19.24 69.719,-0Zm-34.123,-3.825l99.792,99.791l-38.866,38.866l-34.289,-34.289l0,91.669l-54.964,0l0,-91.669l-34.289,34.289l-38.865,-38.866l99.786,-99.786c-9.585,0.236 -19.098,4.007 -26.406,11.315l-69.719,69.72c-15.103,15.102 -15.103,39.625 -0,54.728l69.719,69.72c15.103,15.102 39.626,15.102 54.729,-0l69.719,-69.72c15.103,-15.103 15.103,-39.626 0,-54.728l-69.719,-69.72c-7.364,-7.364 -16.968,-11.137 -26.628,-11.32Zm-17.727,78.777l0,106.66l33.764,0l0,-106.66l44.889,44.889l23.875,-23.875l-85.646,-85.646l-85.646,85.646l23.875,23.875l44.889,-44.889Z" style="fill:#fff;"/></g></svg>