<?xml version="1.0" encoding="UTF-8" standalone="no"?><!DOCTYPE svg PUBLIC "-//W3C//DTD SVG 1.1//EN" "http://www.w3.org/Graphics/SVG/1.1/DTD/svg11.dtd"><svg width="100%" height="100%" viewBox="0 0 524 524" version="1.1" xmlns="http://www.w3.org/2000/svg" xmlns:xlink="http://www.w3.org/1999/xlink" xml:space="preserve" xmlns:serif="http://www.serif.com/" style="fill-rule:evenodd;clip-rule:evenodd;stroke-linecap:round;stroke-linejoin:round;stroke-miterlimit:1.5;"><rect id="Delete-Icon" serif:id="Delete Icon" x="0.771" y="0.106" width="523" height="523" style="fill:none;"/><g><g><path d="M373.451,404.207l-0,-241.682l-34.36,-0l0,241.682l34.36,-0" style="fill:#fff;stroke:#fff;stroke-width:11.45px;"/><path d="M185.451,404.207l-0,-241.682l-34.36,-0l0,241.682l34.36,-0" style="fill:#fff;stroke:#fff;stroke-width:11.45px;"/><path d="M279.451,404.207l-0,-241.682l-34.36,-0l0,241.682l34.36,-0" style="fill:#fff;stroke:#fff;stroke-width:11.45px;"/></g><path d="M407.858,430.926l-291.174,-0l0,34.36l291.174,-0l0,-34.36" style="fill:#fff;stroke:#fff;stroke-width:12.69px;"/><path d="M407.858,101.446l-291.174,-0l0,34.36l291.174,-0l0,-34.36" style="fill:#fff;stroke:#fff;stroke-width:12.69px;"/><path d="M373.451,61.571l-222.36,-0l0,13.156l222.36,-0l-0,-13.156" style="fill:#fff;stroke:#fff;stroke-width:8.1px;"/></g></svg>