<?xml version="1.0" encoding="UTF-8" standalone="no"?><!DOCTYPE svg PUBLIC "-//W3C//DTD SVG 1.1//EN" "http://www.w3.org/Graphics/SVG/1.1/DTD/svg11.dtd"><svg width="100%" height="100%" viewBox="0 0 524 523" version="1.1" xmlns="http://www.w3.org/2000/svg" xmlns:xlink="http://www.w3.org/1999/xlink" xml:space="preserve" xmlns:serif="http://www.serif.com/" style="fill-rule:evenodd;clip-rule:evenodd;stroke-linejoin:round;stroke-miterlimit:2;"><rect id="Files-Icon" serif:id="Files Icon" x="0.458" y="0" width="523" height="523" style="fill:none;"/><path d="M213.039,100.766l0,-27.815c0,-11.039 8.962,-20 20,-20l217.469,-0c11.038,-0 20,8.961 20,20l-0,217.468c-0,11.038 -8.962,20 -20,20l-27.815,-0l-0,-157.653c-0,-28.7 -23.301,-52 -52,-52l-157.654,-0Z" style="fill:#fff;"/><path d="M290.877,180.581l-157.653,0l0,-27.815c0,-11.039 8.962,-20 20,-20l217.469,-0c11.038,-0 20,8.961 20,20l-0,217.468c-0,11.039 -8.962,20 -20,20l-27.816,0l0,-157.653c0,-28.7 -23.3,-52 -52,-52Zm20,52l0,157.653l-157.653,0c-11.038,0 -20,-8.961 -20,-20l0,-157.653l157.653,0c11.039,0 20,8.962 20,20Z" style="fill:#fff;"/><path d="M310.877,232.581c0,-11.038 -8.961,-20 -20,-20l-217.468,0c-11.038,0 -20,8.962 -20,20l-0,217.468c-0,11.039 8.962,20 20,20l217.468,0c11.039,0 20,-8.961 20,-20l0,-217.468Z" style="fill:#fff;"/></svg>