<?xml version="1.0" encoding="UTF-8" standalone="no"?><!DOCTYPE svg PUBLIC "-//W3C//DTD SVG 1.1//EN" "http://www.w3.org/Graphics/SVG/1.1/DTD/svg11.dtd"><svg width="100%" height="100%" viewBox="0 0 524 524" version="1.1" xmlns="http://www.w3.org/2000/svg" xmlns:xlink="http://www.w3.org/1999/xlink" xml:space="preserve" xmlns:serif="http://www.serif.com/" style="fill-rule:evenodd;clip-rule:evenodd;stroke-linecap:round;stroke-linejoin:round;stroke-miterlimit:1.5;"><rect id="Close-Fullscreen" serif:id="Close Fullscreen" x="0.749" y="0.339" width="523" height="523" style="fill:none;"/><g><g><path d="M92.366,116.252l111.11,111.11l24.296,-24.296l-111.11,-111.11l-24.296,24.296" style="fill:#fff;stroke:#fff;stroke-width:10.63px;"/><path d="M193.412,104.104l0,123.258l34.36,0l0,-123.258l-34.36,0" style="fill:#fff;stroke:#fff;stroke-width:10.63px;"/><path d="M104.514,227.362l123.258,0l0,-34.359l-123.258,-0l-0,34.359" style="fill:#fff;stroke:#fff;stroke-width:10.63px;"/></g><g><path d="M407.836,91.956l-111.11,111.11l24.296,24.296l111.11,-111.11l-24.296,-24.296" style="fill:#fff;stroke:#fff;stroke-width:10.63px;"/><path d="M419.984,193.003l-123.258,-0l-0,34.359l123.258,0l-0,-34.359" style="fill:#fff;stroke:#fff;stroke-width:10.63px;"/><path d="M296.726,104.104l-0,123.258l34.359,0l0,-123.258l-34.359,0" style="fill:#fff;stroke:#fff;stroke-width:10.63px;"/></g><g><path d="M432.132,407.426l-111.11,-111.11l-24.296,24.296l111.11,111.11l24.296,-24.296" style="fill:#fff;stroke:#fff;stroke-width:10.63px;"/><path d="M331.085,419.574l0,-123.258l-34.359,-0l-0,123.258l34.359,0" style="fill:#fff;stroke:#fff;stroke-width:10.63px;"/><path d="M419.984,296.316l-123.258,-0l-0,34.36l123.258,-0l-0,-34.36" style="fill:#fff;stroke:#fff;stroke-width:10.63px;"/></g><g><path d="M116.662,431.722l111.11,-111.11l-24.296,-24.296l-111.11,111.11l24.296,24.296" style="fill:#fff;stroke:#fff;stroke-width:10.63px;"/><path d="M104.514,330.676l123.258,-0l0,-34.36l-123.258,-0l-0,34.36" style="fill:#fff;stroke:#fff;stroke-width:10.63px;"/><path d="M227.772,419.574l0,-123.258l-34.36,-0l0,123.258l34.36,0" style="fill:#fff;stroke:#fff;stroke-width:10.63px;"/></g></g></svg>