<?xml version="1.0" encoding="UTF-8" standalone="no"?><!DOCTYPE svg PUBLIC "-//W3C//DTD SVG 1.1//EN" "http://www.w3.org/Graphics/SVG/1.1/DTD/svg11.dtd"><svg width="100%" height="100%" viewBox="0 0 524 523" version="1.1" xmlns="http://www.w3.org/2000/svg" xmlns:xlink="http://www.w3.org/1999/xlink" xml:space="preserve" xmlns:serif="http://www.serif.com/" style="fill-rule:evenodd;clip-rule:evenodd;stroke-linecap:round;stroke-linejoin:round;stroke-miterlimit:1.5;"><rect id="Open-Fullscreen" serif:id="Open Fullscreen" x="0.749" y="-0" width="523" height="523" style="fill:none;"/><g><g><path d="M227.772,202.727l-111.11,-111.11l-24.296,24.296l111.11,111.11l24.296,-24.296" style="fill:#fff;stroke:#fff;stroke-width:10.63px;"/><path d="M126.726,214.875l-0,-123.258l-34.36,-0l-0,123.258l34.36,0" style="fill:#fff;stroke:#fff;stroke-width:10.63px;"/><path d="M215.624,91.617l-123.258,-0l-0,34.36l123.258,-0l0,-34.36" style="fill:#fff;stroke:#fff;stroke-width:10.63px;"/></g><g><path d="M321.022,227.023l111.11,-111.11l-24.296,-24.296l-111.11,111.11l24.296,24.296" style="fill:#fff;stroke:#fff;stroke-width:10.63px;"/><path d="M308.874,125.977l123.258,-0l-0,-34.36l-123.258,-0l-0,34.36" style="fill:#fff;stroke:#fff;stroke-width:10.63px;"/><path d="M432.132,214.875l-0,-123.258l-34.36,-0l0,123.258l34.36,0" style="fill:#fff;stroke:#fff;stroke-width:10.63px;"/></g><g><path d="M296.726,320.273l111.11,111.11l24.296,-24.296l-111.11,-111.11l-24.296,24.296" style="fill:#fff;stroke:#fff;stroke-width:10.63px;"/><path d="M397.772,308.125l0,123.258l34.36,0l-0,-123.258l-34.36,-0" style="fill:#fff;stroke:#fff;stroke-width:10.63px;"/><path d="M308.874,431.383l123.258,0l-0,-34.36l-123.258,0l-0,34.36" style="fill:#fff;stroke:#fff;stroke-width:10.63px;"/></g><g><path d="M203.476,295.977l-111.11,111.11l24.296,24.296l111.11,-111.11l-24.296,-24.296" style="fill:#fff;stroke:#fff;stroke-width:10.63px;"/><path d="M215.624,397.023l-123.258,0l-0,34.36l123.258,0l0,-34.36" style="fill:#fff;stroke:#fff;stroke-width:10.63px;"/><path d="M92.366,308.125l-0,123.258l34.36,0l-0,-123.258l-34.36,-0" style="fill:#fff;stroke:#fff;stroke-width:10.63px;"/></g></g></svg>