<?xml version="1.0" encoding="UTF-8" standalone="no"?>
<!DOCTYPE svg PUBLIC "-//W3C//DTD SVG 1.1//EN" "http://www.w3.org/Graphics/SVG/1.1/DTD/svg11.dtd">
<svg width="100%" height="100%" viewBox="0 0 523 523" version="1.1" xmlns="http://www.w3.org/2000/svg" xmlns:xlink="http://www.w3.org/1999/xlink" xml:space="preserve" xmlns:serif="http://www.serif.com/" style="fill-rule:evenodd;clip-rule:evenodd;stroke-linejoin:round;stroke-miterlimit:2;">
    <g transform="matrix(1,0,0,1,-3141.86,-1165.87)">
        <g id="Friends-Icon" serif:id="Friends Icon" transform="matrix(1,0,0,1,-2269.14,205.866)">
            <rect x="5411" y="960" width="523" height="523" style="fill:none;"/>
            <g transform="matrix(0.716887,0,0,0.716887,4134.94,1030.99)">
                <path d="M2284,180.505C2293.37,177.053 2303.5,175.168 2314.07,175.168C2362.15,175.168 2401.19,214.205 2401.19,262.288C2401.19,308.999 2364.34,347.174 2318.16,349.313C2293.3,311.338 2262,281.69 2226.96,263.675C2226.95,263.213 2226.95,262.751 2226.95,262.288C2226.95,262.282 2226.95,262.276 2226.95,262.27C2254.66,242.937 2275.25,214.102 2284,180.505ZM2328.72,366.643C2339.28,365.377 2349.43,362.762 2358.99,358.975C2420.33,385.851 2464.91,466.298 2464.91,561.253L2377.51,561.253C2377.51,487.712 2359.15,420.259 2328.72,366.643ZM2355.2,561.253L2163.22,561.253C2163.22,466.298 2207.8,385.851 2269.15,358.975C2279.88,363.228 2291.36,366.003 2303.33,367.048C2335.62,418.998 2355.2,486.941 2355.2,561.253Z" style="fill:white;"/>
            </g>
            <g transform="matrix(0.716887,0,0,0.716887,3902.66,1030.99)">
                <path d="M2236.05,561.253L2163.22,561.253C2163.22,466.298 2207.8,385.851 2269.15,358.975C2274.64,361.152 2280.33,362.941 2286.18,364.31C2254.95,418.296 2236.05,486.641 2236.05,561.253ZM2296.51,347.635C2256.83,339.504 2226.95,304.359 2226.95,262.288C2226.95,214.205 2265.98,175.168 2314.07,175.168C2319,175.168 2323.84,175.58 2328.56,176.37C2336.75,212.208 2358.35,242.964 2387.78,263.075C2352.78,280.765 2321.47,310.042 2296.51,347.635ZM2464.91,561.253L2258.37,561.253C2258.37,487.131 2277.84,419.347 2309.99,367.449C2311.35,367.493 2312.7,367.515 2314.07,367.515C2329.92,367.515 2345.08,364.486 2358.99,358.975C2420.33,385.851 2464.91,466.298 2464.91,561.253Z" style="fill:white;"/>
            </g>
            <g transform="matrix(1,0,0,1,3358.43,872.092)">
                <path d="M2314.07,175.168C2362.15,175.168 2401.19,214.205 2401.19,262.288C2401.19,310.371 2362.15,349.408 2314.07,349.408C2265.98,349.408 2226.95,310.371 2226.95,262.288C2226.95,214.205 2265.98,175.168 2314.07,175.168ZM2358.99,358.975C2420.33,385.851 2464.91,466.298 2464.91,561.253L2163.22,561.253C2163.22,466.298 2207.8,385.851 2269.15,358.975C2283.05,364.486 2298.21,367.515 2314.07,367.515C2329.92,367.515 2345.08,364.486 2358.99,358.975Z" style="fill:white;"/>
            </g>
        </g>
    </g>
</svg>
