<?xml version="1.0" encoding="UTF-8" standalone="no"?><!DOCTYPE svg PUBLIC "-//W3C//DTD SVG 1.1//EN" "http://www.w3.org/Graphics/SVG/1.1/DTD/svg11.dtd"><svg width="100%" height="100%" viewBox="0 0 524 523" version="1.1" xmlns="http://www.w3.org/2000/svg" xmlns:xlink="http://www.w3.org/1999/xlink" xml:space="preserve" xmlns:serif="http://www.serif.com/" style="fill-rule:evenodd;clip-rule:evenodd;stroke-linejoin:round;stroke-miterlimit:2;"><rect id="Settings-Cog" serif:id="Settings Cog" x="0.771" y="0" width="523" height="523" style="fill:none;"/><path d="M281.982,58.649c-13.11,-1.274 -26.312,-1.274 -39.422,0l-6.493,31.609c-12.565,1.923 -24.881,5.223 -36.724,9.84l-21.427,-24.127c-11.99,5.451 -23.424,12.053 -34.14,19.711l10.181,30.62c-9.92,7.948 -18.936,16.963 -26.884,26.884l-30.62,-10.182c-7.658,10.717 -14.26,22.151 -19.711,34.141l24.127,21.427c-4.617,11.843 -7.917,24.159 -9.84,36.724l-31.609,6.493c-1.273,13.11 -1.273,26.312 0,39.422l31.609,6.493c1.923,12.565 5.223,24.881 9.84,36.724l-24.127,21.427c5.451,11.99 12.053,23.424 19.711,34.141l30.62,-10.182c7.948,9.921 16.964,18.936 26.884,26.884l-10.181,30.62c10.716,7.658 22.15,14.26 34.14,19.711l21.427,-24.127c11.843,4.617 24.159,7.917 36.724,9.84l6.493,31.609c13.11,1.274 26.312,1.274 39.422,-0l6.493,-31.609c12.565,-1.923 24.881,-5.223 36.724,-9.84l21.427,24.127c11.991,-5.451 23.424,-12.053 34.141,-19.711l-10.182,-30.62c9.921,-7.948 18.936,-16.963 26.884,-26.884l30.62,10.182c7.658,-10.717 14.26,-22.151 19.711,-34.141l-24.127,-21.427c4.617,-11.843 7.917,-24.159 9.84,-36.724l31.609,-6.493c1.274,-13.11 1.274,-26.312 -0,-39.422l-31.609,-6.493c-1.923,-12.565 -5.223,-24.881 -9.84,-36.724l24.127,-21.427c-5.451,-11.99 -12.053,-23.424 -19.711,-34.141l-30.62,10.182c-7.948,-9.921 -16.963,-18.936 -26.884,-26.884l10.182,-30.62c-10.717,-7.658 -22.15,-14.26 -34.141,-19.711l-21.427,24.127c-11.843,-4.617 -24.159,-7.917 -36.724,-9.84l-6.493,-31.609Zm-19.711,58.149c79.863,-0 144.702,64.839 144.702,144.702c0,79.863 -64.839,144.702 -144.702,144.702c-79.863,0 -144.702,-64.839 -144.702,-144.702c-0,-79.863 64.839,-144.702 144.702,-144.702Z" style="fill:#fff;"/><path d="M289.818,57.04c0,-0 5.391,26.243 5.391,26.243c9.396,1.737 18.64,4.214 27.645,7.408l17.79,-20.032c2.331,-2.624 6.099,-3.423 9.293,-1.971c12.461,5.666 24.344,12.526 35.481,20.485c2.855,2.04 4.047,5.703 2.94,9.033c-0,-0 -8.453,25.423 -8.454,25.423c7.269,6.201 14.037,12.969 20.238,20.237l25.423,-8.453c3.33,-1.107 6.993,0.085 9.033,2.94c7.959,11.137 14.819,23.02 20.485,35.481c1.452,3.194 0.653,6.962 -1.97,9.293c-0,-0 -20.033,17.79 -20.033,17.79c3.194,9.005 5.671,18.249 7.408,27.645l26.243,5.391c3.438,0.706 6.014,3.57 6.353,7.062c1.324,13.625 1.324,27.345 0,40.97c-0.339,3.492 -2.915,6.356 -6.353,7.062c0,0 -26.243,5.391 -26.243,5.391c-1.737,9.396 -4.214,18.64 -7.408,27.645l20.033,17.79c2.623,2.331 3.422,6.099 1.97,9.293c-5.666,12.461 -12.526,24.344 -20.485,35.481c-2.04,2.855 -5.703,4.047 -9.033,2.94c0,-0 -25.423,-8.453 -25.422,-8.454c-6.202,7.269 -12.97,14.037 -20.238,20.238l8.453,25.423c1.107,3.33 -0.085,6.993 -2.94,9.033c-11.137,7.959 -23.02,14.819 -35.481,20.485c-3.194,1.452 -6.962,0.653 -9.293,-1.97c0,-0 -17.79,-20.033 -17.789,-20.033c-9.006,3.194 -18.25,5.671 -27.646,7.408l-5.391,26.243c-0.706,3.438 -3.57,6.014 -7.062,6.353c-13.625,1.324 -27.345,1.324 -40.97,0c-3.492,-0.339 -6.356,-2.915 -7.062,-6.353c-0,0 -5.391,-26.243 -5.391,-26.243c-9.396,-1.737 -18.64,-4.214 -27.645,-7.408l-17.79,20.033c-2.331,2.623 -6.099,3.422 -9.293,1.97c-12.461,-5.666 -24.344,-12.526 -35.481,-20.485c-2.855,-2.04 -4.047,-5.703 -2.94,-9.033c0,0 8.453,-25.423 8.454,-25.422c-7.269,-6.202 -14.037,-12.97 -20.238,-20.238l-25.423,8.453c-3.33,1.107 -6.993,-0.085 -9.033,-2.94c-7.959,-11.137 -14.819,-23.02 -20.485,-35.481c-1.452,-3.194 -0.653,-6.962 1.971,-9.293c-0,0 20.032,-17.79 20.032,-17.789c-3.194,-9.006 -5.671,-18.25 -7.408,-27.646l-26.243,-5.391c-3.438,-0.706 -6.014,-3.57 -6.353,-7.062c-1.324,-13.625 -1.324,-27.345 -0,-40.97c0.339,-3.492 2.915,-6.356 6.353,-7.062c-0,-0 26.243,-5.391 26.243,-5.391c1.737,-9.396 4.214,-18.64 7.408,-27.645l-20.032,-17.79c-2.624,-2.331 -3.423,-6.099 -1.971,-9.293c5.666,-12.461 12.526,-24.344 20.485,-35.481c2.04,-2.855 5.703,-4.047 9.033,-2.94c-0,0 25.423,8.453 25.423,8.454c6.202,-7.269 12.969,-14.037 20.237,-20.238l-8.453,-25.423c-1.107,-3.33 0.085,-6.993 2.94,-9.033c11.137,-7.959 23.02,-14.819 35.481,-20.485c3.194,-1.452 6.962,-0.653 9.293,1.971c-0,-0 17.79,20.032 17.79,20.032c9.005,-3.194 18.249,-5.671 27.645,-7.408l5.391,-26.243c0.706,-3.438 3.57,-6.014 7.062,-6.353c13.625,-1.324 27.345,-1.324 40.97,-0c3.492,0.339 6.356,2.915 7.062,6.353Zm-7.836,1.609c-13.11,-1.274 -26.312,-1.274 -39.422,0l-6.493,31.609c-12.565,1.923 -24.881,5.223 -36.724,9.84l-21.427,-24.127c-11.99,5.451 -23.424,12.053 -34.14,19.711l10.181,30.62c-9.92,7.948 -18.936,16.963 -26.884,26.884l-30.62,-10.182c-7.658,10.717 -14.26,22.151 -19.711,34.141l24.127,21.427c-4.617,11.843 -7.917,24.159 -9.84,36.724l-31.609,6.493c-1.273,13.11 -1.273,26.312 0,39.422l31.609,6.493c1.923,12.565 5.223,24.881 9.84,36.724l-24.127,21.427c5.451,11.99 12.053,23.424 19.711,34.141l30.62,-10.182c7.948,9.921 16.964,18.936 26.884,26.884l-10.181,30.62c10.716,7.658 22.15,14.26 34.14,19.711l21.427,-24.127c11.843,4.617 24.159,7.917 36.724,9.84l6.493,31.609c13.11,1.274 26.312,1.274 39.422,-0l6.493,-31.609c12.565,-1.923 24.881,-5.223 36.724,-9.84l21.427,24.127c11.991,-5.451 23.424,-12.053 34.141,-19.711l-10.182,-30.62c9.921,-7.948 18.936,-16.963 26.884,-26.884l30.62,10.182c7.658,-10.717 14.26,-22.151 19.711,-34.141l-24.127,-21.427c4.617,-11.843 7.917,-24.159 9.84,-36.724l31.609,-6.493c1.274,-13.11 1.274,-26.312 -0,-39.422l-31.609,-6.493c-1.923,-12.565 -5.223,-24.881 -9.84,-36.724l24.127,-21.427c-5.451,-11.99 -12.053,-23.424 -19.711,-34.141l-30.62,10.182c-7.948,-9.921 -16.963,-18.936 -26.884,-26.884l10.182,-30.62c-10.717,-7.658 -22.15,-14.26 -34.141,-19.711l-21.427,24.127c-11.843,-4.617 -24.159,-7.917 -36.724,-9.84l-6.493,-31.609Zm-19.711,58.149c79.863,-0 144.702,64.839 144.702,144.702c0,79.863 -64.839,144.702 -144.702,144.702c-79.863,0 -144.702,-64.839 -144.702,-144.702c-0,-79.863 64.839,-144.702 144.702,-144.702Zm0,8c-75.448,-0 -136.702,61.254 -136.702,136.702c-0,75.448 61.254,136.702 136.702,136.702c75.448,0 136.702,-61.254 136.702,-136.702c0,-75.448 -61.254,-136.702 -136.702,-136.702Z" style="fill:#fff;"/><circle cx="262.271" cy="261.5" r="87.12" style="fill:#fff;"/><path d="M262.271,166.38c52.498,0 95.12,42.622 95.12,95.12c-0,52.498 -42.622,95.12 -95.12,95.12c-52.498,-0 -95.12,-42.622 -95.12,-95.12c0,-52.498 42.622,-95.12 95.12,-95.12Zm0,8c-48.083,0 -87.12,39.037 -87.12,87.12c0,48.083 39.037,87.12 87.12,87.12c48.083,-0 87.12,-39.037 87.12,-87.12c-0,-48.083 -39.037,-87.12 -87.12,-87.12Z" style="fill:#fff;"/></svg>