<?xml version="1.0" encoding="UTF-8" standalone="no"?><!DOCTYPE svg PUBLIC "-//W3C//DTD SVG 1.1//EN" "http://www.w3.org/Graphics/SVG/1.1/DTD/svg11.dtd"><svg width="100%" height="100%" viewBox="0 0 524 523" version="1.1" xmlns="http://www.w3.org/2000/svg" xmlns:xlink="http://www.w3.org/1999/xlink" xml:space="preserve" xmlns:serif="http://www.serif.com/" style="fill-rule:evenodd;clip-rule:evenodd;stroke-linecap:round;stroke-linejoin:round;stroke-miterlimit:1.5;"><rect id="Share-Icon" serif:id="Share Icon" x="0.491" y="-0" width="523" height="523" style="fill:none;"/><g><g><path d="M189.069,171.047l101.107,-101.107l-28.185,-28.185l-101.107,101.107l28.185,28.185" style="fill:#fff;stroke:#fff;stroke-width:10.63px;"/><path d="M363.098,142.862l-101.107,-101.107l-28.185,28.185l101.107,101.107l28.185,-28.185" style="fill:#fff;stroke:#fff;stroke-width:10.63px;"/><path d="M281.921,291.587l-0,-229.902l-39.86,-0l0,229.902l39.86,-0" style="fill:#fff;"/></g><path d="M321.78,203.983l68.73,-0.279c20.488,-0 37.122,16.633 37.122,37.121l-0,203.298c-0,20.488 -16.634,37.122 -37.122,37.122l-257.037,-0c-20.489,-0 -37.122,-16.634 -37.122,-37.122l-0,-203.298c-0,-20.488 16.633,-37.121 37.122,-37.121l68.729,-0l-0,37.121l-68.729,0l-0,203.298l257.037,-0l-0,-203.298l-68.73,0.28l0,-37.122Z" style="fill:#fff;"/></g></svg>