<?xml version="1.0" encoding="UTF-8" standalone="no"?>
<!DOCTYPE svg PUBLIC "-//W3C//DTD SVG 1.1//EN" "http://www.w3.org/Graphics/SVG/1.1/DTD/svg11.dtd">
<svg width="100%" height="100%" viewBox="0 0 1920 1920" version="1.1" xmlns="http://www.w3.org/2000/svg" xmlns:xlink="http://www.w3.org/1999/xlink" xml:space="preserve" xmlns:serif="http://www.serif.com/" style="fill-rule:evenodd;clip-rule:evenodd;stroke-linejoin:round;stroke-miterlimit:2;">
    <g transform="matrix(1,0,0,1,0,-14.8767)">
        <g id="Artboard2" transform="matrix(1,0,0,1,-2197,2172.88)">
            <rect x="2197" y="-2158" width="1920" height="1920" style="fill:none;"/>
            <g transform="matrix(1,0,0,1,1095,-2158)">
                <path d="M2265,1530C2198,1505 2179,1485 2151,1456C2137.64,1442.17 2031.19,1309.73 2022.98,1301.52C2014.77,1293.31 1957.24,1232.47 1871,1195C1784.76,1157.53 1523.69,1242.38 1523.69,1242.38L1510.67,1437.76C1509,1452.31 1502.87,1466.66 1492.28,1480.81C1481.68,1494.96 1466.51,1504.66 1446.75,1509.92L1260.45,1559.46L1385.02,425.469L1629.18,360.536C1959,607 1812.01,831.008 2246,1265C2250,1269 2250,1269 2314,1319C2320.05,1323.72 2346,1338 2373.53,1343.2C2394.92,1347.24 2417.84,1353.52 2443.67,1356.19C2469.5,1358.87 2498.37,1355.96 2530.27,1347.48C2573.43,1336 2604.45,1317.58 2623.32,1292.22C2642.2,1266.85 2646.14,1233.53 2635.16,1192.24C2628.8,1168.31 2617.05,1150.59 2599.93,1139.07C2582.8,1127.55 2562.25,1119.7 2538.28,1115.53C2514.32,1111.35 2487.73,1109.13 2458.52,1108.86C2429.31,1108.59 2399.18,1107.69 2368.13,1106.15C2337.08,1104.61 2306.17,1100.78 2275.4,1094.64C2244.64,1088.51 2215.68,1077.37 2188.53,1061.23C2161.38,1045.09 2136.9,1022.47 2115.1,993.355C2093.29,964.242 2076.02,925.758 2063.29,877.904C2053.06,839.433 2050.82,799.841 2056.57,759.13C2062.32,718.418 2076.41,679.76 2098.82,643.156C2121.24,606.552 2151.98,573.886 2191.06,545.158C2230.14,516.43 2277.83,494.58 2334.12,479.608C2365.56,471.248 2396.83,465.57 2427.93,462.573C2459.03,459.577 2489.23,459.331 2518.53,461.837C2547.83,464.343 2575.87,469.193 2602.65,476.388C2629.43,483.583 2654.21,493.192 2677,505.216L2647.27,631.424C2643.23,644.555 2638.08,654.965 2631.84,662.654C2625.6,670.342 2616.37,675.809 2604.18,679.053C2593.39,681.922 2580.87,681.609 2566.63,678.113C2552.39,674.616 2536.28,670.736 2518.32,666.471C2500.36,662.206 2480.39,659.354 2458.4,657.916C2436.42,656.479 2412.53,659.191 2386.72,666.053C2342.15,677.907 2311.49,696.235 2294.72,721.037C2277.96,745.84 2273.88,774.427 2282.49,806.799C2287.98,827.442 2299.11,842.82 2315.86,852.932C2332.62,863.044 2352.97,870.187 2376.94,874.363C2400.91,878.538 2427.71,881.081 2457.34,881.993C2486.97,882.904 2517.43,884.597 2548.73,887.073C2580.03,889.549 2611.22,893.94 2642.28,900.247C2673.34,906.553 2702.36,917.424 2729.32,932.859C2756.28,948.294 2780.35,969.396 2801.54,996.163C2822.72,1022.93 2838.99,1057.66 2850.34,1100.35C2862.95,1147.74 2866.53,1194.26 2861.09,1239.91C2855.64,1285.56 2841.41,1327.9 2818.38,1366.93C2795.36,1405.96 2763.31,1440.35 2722.25,1470.11C2681.18,1499.87 2631.56,1522.48 2573.39,1537.95C2541.49,1546.44 2508.12,1551.79 2473.3,1554.02C2438.48,1556.25 2403.99,1555.5 2369.85,1551.77C2335.7,1548.04 2295.81,1541.5 2265,1530ZM1817.13,990.566L1646.99,734.341C1635.17,718.341 1622.05,699.291 1607.61,677.19C1593.17,655.089 1578.19,630.989 1562.69,604.889C1563.27,635.463 1562.81,664.044 1561.32,690.634C1559.82,717.224 1557.93,740.396 1555.62,760.149L1535.57,1065.44L1817.13,990.566Z" style="fill:white;fill-rule:nonzero;"/>
            </g>
        </g>
    </g>
</svg>
