<?xml version="1.0" encoding="UTF-8" standalone="no"?>
<!DOCTYPE svg PUBLIC "-//W3C//DTD SVG 1.1//EN" "http://www.w3.org/Graphics/SVG/1.1/DTD/svg11.dtd">
<svg width="100%" height="100%" viewBox="0 0 523 523" version="1.1" xmlns="http://www.w3.org/2000/svg" xmlns:xlink="http://www.w3.org/1999/xlink" xml:space="preserve" xmlns:serif="http://www.serif.com/" style="fill-rule:evenodd;clip-rule:evenodd;stroke-linejoin:round;stroke-miterlimit:2;">
    <g transform="matrix(1,0,0,1,-5411,-960)">
        <rect id="Filled-Star" serif:id="Filled Star" x="5411" y="960" width="523" height="523" style="fill:none;"/>
        <g id="Filled-Star1" serif:id="Filled Star">
            <g transform="matrix(1.30406,0,0,1.30406,-1775.16,-395.942)">
                <path d="M5717.17,1075.87C5717.17,1075.87 5748.19,1171.34 5755.26,1193.1L5878.53,1193.1C5881.27,1193.1 5883.7,1194.87 5884.55,1197.48C5885.4,1200.09 5884.47,1202.95 5882.25,1204.57C5882.25,1204.57 5782.53,1277.02 5782.53,1277.02L5820.62,1394.25C5821.47,1396.87 5820.54,1399.73 5818.32,1401.34C5816.09,1402.95 5813.09,1402.95 5810.86,1401.34C5810.86,1401.34 5729.65,1342.34 5711.14,1328.89L5611.41,1401.34C5609.19,1402.95 5606.19,1402.95 5603.96,1401.34C5601.74,1399.73 5600.81,1396.87 5601.66,1394.25C5601.66,1394.25 5632.68,1298.78 5639.75,1277.02L5540.03,1204.57C5537.81,1202.95 5536.88,1200.09 5537.73,1197.48C5538.57,1194.87 5541.01,1193.1 5543.75,1193.1C5543.75,1193.1 5667.02,1193.1 5667.02,1193.1L5705.11,1075.87C5705.96,1073.26 5708.39,1071.49 5711.14,1071.49C5713.89,1071.49 5716.32,1073.26 5717.17,1075.87Z" style="fill:#fff;"/>
            </g>
        </g>
    </g>
</svg>
