<?xml version="1.0" encoding="UTF-8"?>
<svg id="Layer_1" data-name="Layer 1" xmlns="http://www.w3.org/2000/svg" viewBox="0 0 785.12 472.05">
  <defs>
    <style>
      .cls-1 {
        stroke-linejoin: round;
      }

      .cls-1, .cls-2, .cls-3 {
        fill: #fff;
      }

      .cls-1, .cls-2, .cls-3, .cls-4, .cls-5, .cls-6, .cls-7 {
        stroke: #231f20;
      }

      .cls-1, .cls-3 {
        stroke-linecap: round;
      }

      .cls-1, .cls-4, .cls-5 {
        stroke-width: 5px;
      }

      .cls-2, .cls-3, .cls-4, .cls-5, .cls-6, .cls-7 {
        stroke-miterlimit: 10;
      }

      .cls-2, .cls-3, .cls-6, .cls-7 {
        stroke-width: 6px;
      }

      .cls-8 {
        letter-spacing: .01em;
      }

      .cls-9 {
        letter-spacing: -.01em;
      }

      .cls-10 {
        letter-spacing: 0em;
      }

      .cls-11 {
        letter-spacing: 0em;
      }

      .cls-12 {
        letter-spacing: 0em;
      }

      .cls-4 {
        fill: #e97e25;
      }

      .cls-5 {
        fill: #3c3428;
      }

      .cls-6 {
        fill: #a43e23;
      }

      .cls-7 {
        fill: none;
      }

      .cls-13 {
        fill: #231f20;
        font-family: AcuminPro-Regular, 'Acumin Pro';
        font-size: 108.86px;
      }
    </style>
  </defs>
  <g>
    <path class="cls-1" d="m279.85,308.36v.04c0,62.23-50.45,112.68-112.68,112.68-44.72,0-83.34-26.05-101.54-63.8-.01,0-.02-.02-.02-.03-4.23-8.77-7.35-18.18-9.19-28.03-1.26-6.75-1.92-13.71-1.92-20.82,0-62.23,50.44-112.67,112.67-112.67,52.51,0,96.63,35.91,109.13,84.51,2.32,8.99,3.55,18.41,3.55,28.12Z"/>
    <path class="cls-4" d="m279.85,308.36c-21.07-21.94-73.94-53.12-111.43-51.95-76.96,2.4-103.74,46.26-112,72.81-1.26-6.75-1.92-13.71-1.92-20.82,0-62.23,50.44-112.67,112.67-112.67,52.51,0,96.63,35.91,109.13,84.51,2.32,8.99,3.55,18.41,3.55,28.12Z"/>
    <rect class="cls-2" x="130.57" y="139.76" width="133.44" height="89.16" rx="12" ry="12" transform="translate(48.84 -41.2) rotate(13.59)"/>
    <rect class="cls-2" x="141.38" y="78.52" width="133.44" height="24" rx="12" ry="12" transform="translate(-16.57 58.57) rotate(-15.42)"/>
    <path class="cls-1" d="m279.85,308.4c0,62.23-50.45,112.68-112.68,112.68-44.72,0-83.34-26.05-101.54-63.8,15.13,20.53,39.8,37.35,79.97,36.12,99.66-3.04,108.81-130.44,130.45-113.37.09.07.17.14.25.21,2.32,9,3.55,18.44,3.55,28.16Z"/>
    <line class="cls-1" x1="240.23" y1="328.92" x2="273.06" y2="347.01"/>
    <line class="cls-1" x1="227.77" y1="348.03" x2="259" y2="373.71"/>
    <line class="cls-1" x1="208.28" y1="369.27" x2="231.73" y2="400.76"/>
    <line class="cls-1" x1="177.51" y1="387.48" x2="188.08" y2="419.14"/>
    <line class="cls-1" x1="142.2" y1="394.07" x2="136" y2="416.71"/>
    <line class="cls-1" x1="108.69" y1="388.62" x2="102.21" y2="400.47"/>
    <line class="cls-1" x1="250.93" y1="308.82" x2="279.04" y2="321.98"/>
    <g>
      <circle class="cls-7" cx="175.42" cy="337.96" r="33.22"/>
      <path class="cls-5" d="m208.1,343.96c-2.83,15.49-16.38,27.22-32.68,27.22-18.35,0-33.22-14.87-33.22-33.22s14.72-33.07,32.95-33.22c-.35,1.95-.54,3.95-.54,6,0,18.34,14.88,33.22,33.23,33.22h.26Z"/>
    </g>
    <g>
      <circle class="cls-7" cx="102.21" cy="337.96" r="33.22"/>
      <path class="cls-5" d="m134.89,343.96c-2.83,15.49-16.38,27.22-32.68,27.22-18.35,0-33.22-14.87-33.22-33.22s14.72-33.07,32.95-33.22c-.35,1.95-.54,3.95-.54,6,0,18.34,14.88,33.22,33.23,33.22h.26Z"/>
    </g>
    <path class="cls-6" d="m277.39,285.45c-11.59-21.72-49.63-45.92-95.82-59.05-51.68-14.7-95.77-10.5-104.87,8.74-2.69-5.03-3.94-9.92-3.58-14.51,1.97-24.45,49.68-31.17,106.54-15,56.86,16.17,101.37,49.11,99.39,73.56-.18,2.24-.75,4.33-1.67,6.27Z"/>
  </g>
  <text class="cls-13" transform="translate(310 284.15)"><tspan x="0" y="0">A</tspan><tspan class="cls-8" x="71.85" y="0">k</tspan><tspan class="cls-9" x="128.02" y="0">t</tspan><tspan x="161.33" y="0">u</tspan><tspan class="cls-10" x="221.97" y="0">e</tspan><tspan class="cls-12" x="279.23" y="0">l</tspan><tspan x="305.47" y="0">t</tspan><tspan class="cls-11" x="0" y="104.51">S</tspan><tspan class="cls-9" x="65.65" y="104.51">t</tspan><tspan x="98.96" y="104.51">udio</tspan></text>
  <line class="cls-3" x1="156.74" y1="104.68" x2="259.46" y2="76.36"/>
  <line class="cls-3" x1="153.3" y1="139.62" x2="257.06" y2="163.81"/>
</svg>