<?xml version="1.0" encoding="UTF-8"?>
<svg id="Layer_2" data-name="Layer 2" xmlns="http://www.w3.org/2000/svg" viewBox="0 0 137.92 137.92">
  <defs>
    <style>
      .cls-1 {
        fill: #3c3428;
      }

      .cls-1, .cls-2 {
        stroke-width: 0px;
      }

      .cls-2 {
        fill: #e97e25;
      }
    </style>
  </defs>
  <g id="Layer_2-2" data-name="Layer 2">
    <g id="B_W" data-name="B&amp;amp;W">
      <g>
        <g>
          <path class="cls-1" d="m22.16,119.53c1.66.85,3.37,1.61,5.14,2.3l-.77,1.41c-.08-.06-.15-.12-.24-.19-.58-.46-1.16-.93-1.73-1.41-.01,0-.02-.01-.02-.01-.58-.49-1.16-.99-1.72-1.49-.23-.2-.44-.41-.66-.61Z"/>
          <path class="cls-1" d="m33.06,123.74c5.03,1.39,10.43,2.22,16.17,2.43l-2.22,8.11c-.83-.27-1.66-.57-2.47-.89-.51-.18-1.03-.38-1.53-.61-.06,0-.11-.02-.14-.05-.54-.21-1.06-.44-1.57-.68-.36-.14-.7-.3-1.04-.46-.5-.23-.99-.45-1.48-.69-.94-.45-1.86-.93-2.77-1.44-.5-.26-.99-.54-1.48-.82-1.06-.6-2.1-1.24-3.11-1.91-.11-.06-.21-.13-.31-.2.11.07.2.13.31.19l1.63-2.97Z"/>
          <path class="cls-1" d="m78.36,137.27c-3.08.43-6.22.64-9.42.64-.7,0-1.42-.01-2.12-.04-.23,0-.45-.01-.68-.04-.7-.01-1.41-.06-2.11-.11-.72-.05-1.44-.12-2.16-.19l-.61-.07c-.69-.07-1.4-.17-2.09-.26-.73-.11-1.44-.23-2.17-.36-.87-.15-1.74-.32-2.6-.51-.27-.06-.56-.12-.85-.19-.29-.06-.57-.12-.85-.19-.21-.06-.44-.12-.66-.18.23.06.44.12.67.15l2.66-9.74h.01c6.68-.21,12.75-1.28,18.26-2.99l4.7,14.07Z"/>
          <path class="cls-1" d="m76.68,70.38v.07c0,9,6.57,16.5,15.15,17.97.01-.19.01-.39.01-.58,0-8.89-6.6-16.26-15.16-17.45Zm-46.75,0v.07c0,9,6.57,16.5,15.16,17.97.01-.19.01-.39.01-.58,0-8.89-6.62-16.26-15.18-17.45Zm39.88-32.24C21.48,39.64,5.85,67.5,1.08,81.23c.02.15.06.32.08.48.41,2.16.91,4.28,1.53,6.39-.01-.08-.01-.18-.01-.26,0-13.67,11.12-24.79,24.79-24.79,10.78,0,19.97,6.9,23.38,16.52,3.41-9.62,12.6-16.52,23.37-16.52,13.66,0,24.79,11.11,24.79,24.79s-11.12,24.79-24.79,24.79c-10.77,0-19.96-6.9-23.37-16.52-3.41,9.62-12.6,16.52-23.38,16.52-2.47,0-4.85-.36-7.11-1.05,3.68,2.4,7.68,4.29,11.98,5.71.12.02.24.06.36.11,6.72,2.16,14.2,3.11,22.39,2.86,7.13-.21,13.5-1.47,19.21-3.51.17-.06.33-.12.51-.18.01-.01.02-.02.04-.01,6.91-2.54,12.85-6.22,18.01-10.6.27-.23.54-.45.81-.69,0,0,0-.01.01-.01,4.3-3.77,8.05-8.01,11.36-12.45,0-.01.01-.02.01-.02.15-.19.3-.38.44-.57,2.77-3.76,5.22-7.64,7.44-11.49.05-.08.1-.17.14-.24t.01-.02c2.47-4.28,4.64-8.51,6.6-12.45.01-.01.01-.04.02-.05.01-.04.04-.07.06-.1.44-.88.87-1.75,1.3-2.6,1.23-2.46,2.35-4.71,3.42-6.74-15.93-10.88-37.95-20.9-54.69-20.39Zm6.87,32.24v.07c0,9,6.57,16.5,15.15,17.97.01-.19.01-.39.01-.58,0-8.89-6.6-16.26-15.16-17.45Zm0,0v.07c0,9,6.57,16.5,15.15,17.97.01-.19.01-.39.01-.58,0-8.89-6.6-16.26-15.16-17.45Zm0,0v.07c0,9,6.57,16.5,15.15,17.97.01-.19.01-.39.01-.58,0-8.89-6.6-16.26-15.16-17.45Z"/>
          <path class="cls-2" d="m134.36,47.07c-2.8.73-5.11,3.3-7.55,7.33-16.68-11.28-39.59-21.57-57.14-21.03C26.66,34.72,7.96,56.01.06,71.56c-.05-.87-.06-1.74-.06-2.61C0,30.93,30.93,0,68.95,0c29.86,0,56.11,19.12,65.42,47.07Z"/>
          <path class="cls-1" d="m94.67,112.08l11.21,15.08c-6.53,4.17-13.82,7.26-21.59,9.04l-5.02-15.02c5.75-2.38,10.85-5.5,15.4-9.1Z"/>
          <path class="cls-1" d="m123.48,111.14c-3.67,4.73-7.94,8.97-12.7,12.6l-11.59-15.53c3.28-3.04,6.24-6.32,8.91-9.72l15.38,12.65Z"/>
          <path class="cls-1" d="m116.68,86.05l16.14,8.89c-1.62,3.97-3.6,7.75-5.9,11.3l-15.25-12.53c1.8-2.54,3.46-5.11,5.01-7.67Z"/>
          <path class="cls-1" d="m123.78,73.14l13.35,6.25c-.51,3.37-1.28,6.68-2.28,9.87l-15.18-8.37c1.48-2.67,2.84-5.27,4.1-7.75Z"/>
          <path class="cls-1" d="m137.62,62.58c-1.81-1.56-3.79-3.14-5.93-4.72,1.63-2.79,3.11-4.78,4.2-5.03.04-.01.07-.01.12,0h.01c.06.24.11.48.15.72.06.21.11.44.16.67.08.38.17.76.24,1.14.07.36.14.73.2,1.1.06.27.12.56.16.86.08.43.15.88.21,1.32.04.18.06.36.07.54.07.45.13.91.19,1.37.04.32.08.64.11.98.05.36.08.7.11,1.06Z"/>
          <path class="cls-1" d="m137.92,69.32c-.01,1.28-.05,2.55-.13,3.8l-11.33-5.29c.95-1.92,1.94-3.91,2.92-5.78,3.25,2.47,6.15,4.92,8.54,7.27Z"/>
          <path class="cls-1" d="m52.73,135.94c-.23-.04-.44-.1-.67-.15.21.06.44.12.66.18.27.07.56.13.85.19-.27-.07-.55-.14-.83-.21Zm-21.61-9.42c.1.07.2.14.31.2h0c-.11-.07-.2-.13-.31-.2Zm104.9-73.69h-.01c.06.24.12.48.17.72-.05-.24-.1-.48-.15-.72Z"/>
        </g>
        <g>
          <path class="cls-1" d="m22.16,119.53c1.66.85,3.37,1.61,5.14,2.3l-.77,1.41c-.08-.06-.15-.12-.24-.19-.58-.46-1.16-.93-1.73-1.41-.01,0-.02-.01-.02-.01-.58-.49-1.16-.99-1.72-1.49-.23-.2-.44-.41-.66-.61Z"/>
          <path class="cls-1" d="m33.06,123.74c5.03,1.39,10.43,2.22,16.17,2.43l-2.22,8.11c-.83-.27-1.66-.57-2.47-.89-.51-.18-1.03-.38-1.53-.61-.06,0-.11-.02-.14-.05-.54-.21-1.06-.44-1.57-.68-.36-.14-.7-.3-1.04-.46-.5-.23-.99-.45-1.48-.69-.94-.45-1.86-.93-2.77-1.44-.5-.26-.99-.54-1.48-.82-1.06-.6-2.1-1.24-3.11-1.91-.11-.06-.21-.13-.31-.2.11.07.2.13.31.19l1.63-2.97Z"/>
          <path class="cls-1" d="m78.36,137.27c-3.08.43-6.22.64-9.42.64-.7,0-1.42-.01-2.12-.04-.23,0-.45-.01-.68-.04-.7-.01-1.41-.06-2.11-.11-.72-.05-1.44-.12-2.16-.19l-.61-.07c-.69-.07-1.4-.17-2.09-.26-.73-.11-1.44-.23-2.17-.36-.87-.15-1.74-.32-2.6-.51-.27-.06-.56-.12-.85-.19-.29-.06-.57-.12-.85-.19-.21-.06-.44-.12-.66-.18.23.06.44.12.67.15l2.66-9.74h.01c6.68-.21,12.75-1.28,18.26-2.99l4.7,14.07Z"/>
          <path class="cls-1" d="m94.67,112.08l11.21,15.08c-6.53,4.17-13.82,7.26-21.59,9.04l-5.02-15.02c5.75-2.38,10.85-5.5,15.4-9.1Z"/>
          <path class="cls-1" d="m123.48,111.14c-3.67,4.73-7.94,8.97-12.7,12.6l-11.59-15.53c3.28-3.04,6.24-6.32,8.91-9.72l15.38,12.65Z"/>
          <path class="cls-1" d="m116.68,86.05l16.14,8.89c-1.62,3.97-3.6,7.75-5.9,11.3l-15.25-12.53c1.8-2.54,3.46-5.11,5.01-7.67Z"/>
          <path class="cls-1" d="m123.78,73.14l13.35,6.25c-.51,3.37-1.28,6.68-2.28,9.87l-15.18-8.37c1.48-2.67,2.84-5.27,4.1-7.75Z"/>
          <path class="cls-1" d="m137.62,62.58c-1.81-1.56-3.79-3.14-5.93-4.72,1.63-2.79,3.11-4.78,4.2-5.03.04-.01.07-.01.12,0h.01c.06.24.11.48.15.72.06.21.11.44.16.67.08.38.17.76.24,1.14.07.36.14.73.2,1.1.06.27.12.56.16.86.08.43.15.88.21,1.32.04.18.06.36.07.54.07.45.13.91.19,1.37.04.32.08.64.11.98.05.36.08.7.11,1.06Z"/>
          <path class="cls-1" d="m137.92,69.32c-.01,1.28-.05,2.55-.13,3.8l-11.33-5.29c.95-1.92,1.94-3.91,2.92-5.78,3.25,2.47,6.15,4.92,8.54,7.27Z"/>
        </g>
        <path class="cls-1" d="m112.99,80.62s.06-.1.1-.14c-.05.07-.1.15-.14.24.01-.04.04-.06.05-.1Z"/>
        <path class="cls-1" d="m105.5,92.21c-.14.19-.29.38-.44.57.08-.14.18-.29.29-.42.05-.06.1-.11.15-.15Z"/>
        <path class="cls-1" d="m93.67,105.26c-.27.24-.54.47-.81.69.17-.19.35-.38.56-.54.08-.06.17-.12.25-.16Z"/>
        <path class="cls-1" d="m74.81,116.56c-.18.06-.35.12-.51.18.1-.06.2-.1.31-.13.07-.02.13-.05.2-.05Z"/>
        <path class="cls-1" d="m52.73,135.94v.02c-.23-.06-.45-.12-.67-.18.23.06.44.12.67.15Z"/>
        <path class="cls-1" d="m31.12,126.52c.11.07.2.13.31.19h0c-.11-.05-.21-.12-.31-.19Z"/>
      </g>
    </g>
  </g>
</svg>