<?xml version="1.0" encoding="UTF-8"?>
<svg id="Layer_2" data-name="Layer 2" xmlns="http://www.w3.org/2000/svg" viewBox="0 0 312.59 124.19">
  <defs>
    <style>
      .cls-1 {
        fill: #fff;
      }

      .cls-2 {
        fill: #231f20;
      }
    </style>
  </defs>
  <g id="Layer_2-2" data-name="Layer 2">
    <g id="B_W" data-name="B&amp;amp;W">
      <g>
        <g>
          <path class="cls-1" d="m18.59,100.26c1.39.71,2.83,1.35,4.31,1.93l-.65,1.18c-.07-.05-.13-.1-.2-.16-.49-.39-.97-.78-1.45-1.18-.01,0-.02,0-.02,0-.49-.41-.97-.83-1.44-1.25-.19-.17-.37-.34-.55-.51Z"/>
          <path class="cls-1" d="m27.73,103.79c4.22,1.17,8.75,1.86,13.56,2.04l-1.86,6.8c-.7-.23-1.39-.48-2.07-.75-.43-.15-.86-.32-1.28-.51-.05,0-.09-.02-.12-.04-.45-.18-.89-.37-1.32-.57-.3-.12-.59-.25-.87-.39-.42-.19-.83-.38-1.24-.58-.79-.38-1.56-.78-2.32-1.21-.42-.22-.83-.45-1.24-.69-.89-.5-1.76-1.04-2.61-1.6-.09-.05-.18-.11-.26-.17.09.06.17.11.26.16l1.37-2.49Z"/>
          <path class="cls-1" d="m65.73,115.14c-2.58.36-5.22.54-7.9.54-.59,0-1.19-.01-1.78-.03-.19,0-.38-.01-.57-.03-.59-.01-1.18-.05-1.77-.09-.6-.04-1.21-.1-1.81-.16l-.51-.06c-.58-.06-1.17-.14-1.75-.22-.61-.09-1.21-.19-1.82-.3-.73-.13-1.46-.27-2.18-.43-.23-.05-.47-.1-.71-.16-.24-.05-.48-.1-.71-.16-.18-.05-.37-.1-.55-.15.19.05.37.1.56.13l2.23-8.17h.01c5.6-.18,10.69-1.07,15.32-2.51l3.94,11.8Z"/>
          <path class="cls-1" d="m64.32,59.03v.06c0,7.55,5.51,13.84,12.71,15.07.01-.16.01-.33.01-.49,0-7.46-5.54-13.64-12.72-14.64Zm-39.21,0v.06c0,7.55,5.51,13.84,12.72,15.07.01-.16.01-.33.01-.49,0-7.46-5.55-13.64-12.73-14.64Zm33.45-27.04C18.02,33.25,4.91,56.62.91,68.13c.02.13.05.27.07.4.34,1.81.76,3.59,1.28,5.36-.01-.07-.01-.15-.01-.22,0-11.47,9.33-20.79,20.79-20.79,9.04,0,16.75,5.79,19.61,13.86,2.86-8.07,10.57-13.86,19.6-13.86,11.46,0,20.79,9.32,20.79,20.79s-9.33,20.79-20.79,20.79c-9.03,0-16.74-5.79-19.6-13.86-2.86,8.07-10.57,13.86-19.61,13.86-2.07,0-4.07-.3-5.96-.88,3.09,2.01,6.44,3.6,10.05,4.79.1.02.2.05.3.09,5.64,1.81,11.91,2.61,18.78,2.4,5.98-.18,11.32-1.23,16.11-2.94.14-.05.28-.1.43-.15.01-.01.02-.02.03-.01,5.8-2.13,10.78-5.22,15.11-8.89.23-.19.45-.38.68-.58,0,0,0-.01.01-.01,3.61-3.16,6.75-6.72,9.53-10.44,0-.01.01-.02.01-.02.13-.16.25-.32.37-.48,2.32-3.15,4.38-6.41,6.24-9.64.04-.07.08-.14.12-.2t.01-.02c2.07-3.59,3.89-7.14,5.54-10.44.01-.01.01-.03.02-.04.01-.03.03-.06.05-.08.37-.74.73-1.47,1.09-2.18,1.03-2.06,1.97-3.95,2.87-5.65-13.36-9.13-31.83-17.53-45.87-17.1Zm5.76,27.04v.06c0,7.55,5.51,13.84,12.71,15.07.01-.16.01-.33.01-.49,0-7.46-5.54-13.64-12.72-14.64Zm0,0v.06c0,7.55,5.51,13.84,12.71,15.07.01-.16.01-.33.01-.49,0-7.46-5.54-13.64-12.72-14.64Zm0,0v.06c0,7.55,5.51,13.84,12.71,15.07.01-.16.01-.33.01-.49,0-7.46-5.54-13.64-12.72-14.64Z"/>
          <path class="cls-1" d="m112.7,39.48c-2.35.61-4.29,2.77-6.33,6.15-13.99-9.46-33.21-18.09-47.93-17.64C22.36,29.12,6.68,46.98.05,60.02c-.04-.73-.05-1.46-.05-2.19C0,25.94,25.94,0,57.83,0c25.05,0,47.06,16.04,54.87,39.48Z"/>
          <path class="cls-1" d="m79.41,94.01l9.4,12.65c-5.48,3.5-11.59,6.09-18.11,7.58l-4.21-12.6c4.82-2,9.1-4.61,12.92-7.63Z"/>
          <path class="cls-1" d="m103.57,93.22c-3.08,3.97-6.66,7.52-10.65,10.57l-9.72-13.03c2.75-2.55,5.23-5.3,7.47-8.15l12.9,10.61Z"/>
          <path class="cls-1" d="m97.87,72.18l13.54,7.46c-1.36,3.33-3.02,6.5-4.95,9.48l-12.79-10.51c1.51-2.13,2.9-4.29,4.2-6.43Z"/>
          <path class="cls-1" d="m103.82,61.35l11.2,5.24c-.43,2.83-1.07,5.6-1.91,8.28l-12.73-7.02c1.24-2.24,2.38-4.42,3.44-6.5Z"/>
          <path class="cls-1" d="m115.43,52.49c-1.52-1.31-3.18-2.63-4.97-3.96,1.37-2.34,2.61-4.01,3.52-4.22.03-.01.06-.01.1,0h.01c.05.2.09.4.13.6.05.18.09.37.13.56.07.32.14.64.2.96.06.3.12.61.17.92.05.23.1.47.13.72.07.36.13.74.18,1.11.03.15.05.3.06.45.06.38.11.76.16,1.15.03.27.07.54.09.82.04.3.07.59.09.89Z"/>
          <path class="cls-1" d="m115.68,58.14c-.01,1.07-.04,2.14-.11,3.19l-9.5-4.44c.8-1.61,1.63-3.28,2.45-4.85,2.73,2.07,5.16,4.13,7.16,6.1Z"/>
          <path class="cls-2" d="m44.23,114.02c-.19-.03-.37-.08-.56-.13.18.05.37.1.55.15.23.06.47.11.71.16-.23-.06-.46-.12-.7-.18Zm-18.13-7.9c.08.06.17.12.26.17h0c-.09-.06-.17-.11-.26-.17Zm87.99-61.81h-.01c.05.2.1.4.14.6-.04-.2-.08-.4-.13-.6Z"/>
        </g>
        <g>
          <path class="cls-1" d="m18.59,100.26c1.39.71,2.83,1.35,4.31,1.93l-.65,1.18c-.07-.05-.13-.1-.2-.16-.49-.39-.97-.78-1.45-1.18-.01,0-.02,0-.02,0-.49-.41-.97-.83-1.44-1.25-.19-.17-.37-.34-.55-.51Z"/>
          <path class="cls-1" d="m27.73,103.79c4.22,1.17,8.75,1.86,13.56,2.04l-1.86,6.8c-.7-.23-1.39-.48-2.07-.75-.43-.15-.86-.32-1.28-.51-.05,0-.09-.02-.12-.04-.45-.18-.89-.37-1.32-.57-.3-.12-.59-.25-.87-.39-.42-.19-.83-.38-1.24-.58-.79-.38-1.56-.78-2.32-1.21-.42-.22-.83-.45-1.24-.69-.89-.5-1.76-1.04-2.61-1.6-.09-.05-.18-.11-.26-.17.09.06.17.11.26.16l1.37-2.49Z"/>
          <path class="cls-1" d="m65.73,115.14c-2.58.36-5.22.54-7.9.54-.59,0-1.19-.01-1.78-.03-.19,0-.38-.01-.57-.03-.59-.01-1.18-.05-1.77-.09-.6-.04-1.21-.1-1.81-.16l-.51-.06c-.58-.06-1.17-.14-1.75-.22-.61-.09-1.21-.19-1.82-.3-.73-.13-1.46-.27-2.18-.43-.23-.05-.47-.1-.71-.16-.24-.05-.48-.1-.71-.16-.18-.05-.37-.1-.55-.15.19.05.37.1.56.13l2.23-8.17h.01c5.6-.18,10.69-1.07,15.32-2.51l3.94,11.8Z"/>
          <path class="cls-1" d="m79.41,94.01l9.4,12.65c-5.48,3.5-11.59,6.09-18.11,7.58l-4.21-12.6c4.82-2,9.1-4.61,12.92-7.63Z"/>
          <path class="cls-1" d="m103.57,93.22c-3.08,3.97-6.66,7.52-10.65,10.57l-9.72-13.03c2.75-2.55,5.23-5.3,7.47-8.15l12.9,10.61Z"/>
          <path class="cls-1" d="m97.87,72.18l13.54,7.46c-1.36,3.33-3.02,6.5-4.95,9.48l-12.79-10.51c1.51-2.13,2.9-4.29,4.2-6.43Z"/>
          <path class="cls-1" d="m103.82,61.35l11.2,5.24c-.43,2.83-1.07,5.6-1.91,8.28l-12.73-7.02c1.24-2.24,2.38-4.42,3.44-6.5Z"/>
          <path class="cls-1" d="m115.43,52.49c-1.52-1.31-3.18-2.63-4.97-3.96,1.37-2.34,2.61-4.01,3.52-4.22.03-.01.06-.01.1,0h.01c.05.2.09.4.13.6.05.18.09.37.13.56.07.32.14.64.2.96.06.3.12.61.17.92.05.23.1.47.13.72.07.36.13.74.18,1.11.03.15.05.3.06.45.06.38.11.76.16,1.15.03.27.07.54.09.82.04.3.07.59.09.89Z"/>
          <path class="cls-1" d="m115.68,58.14c-.01,1.07-.04,2.14-.11,3.19l-9.5-4.44c.8-1.61,1.63-3.28,2.45-4.85,2.73,2.07,5.16,4.13,7.16,6.1Z"/>
        </g>
        <path class="cls-2" d="m94.77,67.62s.05-.08.08-.12c-.04.06-.08.13-.12.2.01-.03.03-.05.04-.08Z"/>
        <path class="cls-2" d="m88.49,77.34c-.12.16-.24.32-.37.48.07-.12.15-.24.24-.35.04-.05.08-.09.13-.13Z"/>
        <path class="cls-2" d="m78.57,88.29c-.23.2-.45.39-.68.58.14-.16.29-.32.47-.45.07-.05.14-.1.21-.13Z"/>
        <path class="cls-2" d="m62.75,97.77c-.15.05-.29.1-.43.15.08-.05.17-.08.26-.11.06-.02.11-.04.17-.04Z"/>
        <path class="cls-2" d="m44.23,114.02v.02c-.19-.05-.38-.1-.56-.15.19.05.37.1.56.13Z"/>
        <path class="cls-2" d="m26.1,106.12c.09.06.17.11.26.16h0c-.09-.04-.18-.1-.26-.16Z"/>
      </g>
      <g>
        <path class="cls-1" d="m141.31,40.76l-4.37,12.19h-5.36l14.46-40.58h6.59l15.1,40.58h-5.77l-4.49-12.19h-16.15Zm14.81-4.61c-3.91-10.67-6-16.32-6.88-19.42h-.06c-.99,3.44-3.38,10.32-6.47,19.42h13.41Z"/>
        <path class="cls-1" d="m178.39,37.5c2.45-2.92,8.98-9.74,12.94-14.11h6.12l-11.14,11.49,12.42,18.07h-6l-9.91-14.75-4.43,4.26v10.5h-5.13V10.15h5.13v27.34Z"/>
        <path class="cls-1" d="m199.55,23.39h5.13v-8.75h5.07v8.75h6.53v4.14h-6.53v17.32c0,2.92.7,4.37,3.38,4.37.7,0,1.75-.06,2.57-.23v3.85c-1.22.47-2.97.52-4.43.52-4.61,0-6.59-2.39-6.59-7.29v-18.54h-5.13v-4.14Z"/>
        <path class="cls-1" d="m244.91,44.32c0,2.92.06,6.88.06,8.63h-4.96c-.12-.76-.17-2.57-.23-4.43-1.46,3.26-4.26,5.13-8.92,5.13-5.01,0-9.79-2.51-9.79-10.84v-19.42h5.07v18.37c0,3.85,1.22,7.46,6.12,7.46,5.42,0,7.52-3.03,7.52-10.44v-15.39h5.13v20.93Z"/>
        <path class="cls-1" d="m256.69,39.07c.06,6,3.09,10.32,8.1,10.32,4.66,0,6.18-2.45,7.11-4.61h5.19c-1.17,3.79-4.37,8.86-12.48,8.86-9.27,0-13.06-7.58-13.06-15.16,0-8.8,4.43-15.8,13.41-15.8,9.56,0,12.65,7.64,12.65,13.93,0,.93,0,1.69-.06,2.45h-20.87Zm15.74-3.56c-.06-4.9-2.51-8.8-7.52-8.8s-7.52,3.61-8.05,8.8h15.57Z"/>
        <path class="cls-1" d="m284.32,52.95V10.15h5.13v42.79h-5.13Z"/>
        <path class="cls-1" d="m294.58,23.39h5.13v-8.75h5.07v8.75h6.53v4.14h-6.53v17.32c0,2.92.7,4.37,3.38,4.37.7,0,1.75-.06,2.57-.23v3.85c-1.22.47-2.97.52-4.43.52-4.61,0-6.59-2.39-6.59-7.29v-18.54h-5.13v-4.14Z"/>
        <path class="cls-1" d="m138.28,97.6c1.11,4.9,4.43,7.52,10.32,7.52,6.3,0,8.8-2.97,8.8-6.82,0-4.08-1.98-6.36-10.09-8.28-9.56-2.33-12.88-5.6-12.88-11.31,0-6.06,4.43-10.96,13.47-10.96,9.68,0,13.64,5.6,14.23,10.9h-5.48c-.76-3.56-2.97-6.53-8.92-6.53-4.96,0-7.7,2.22-7.7,6.06s2.27,5.31,9.39,7.06c11.54,2.8,13.58,7.29,13.58,12.54,0,6.53-4.84,11.66-14.75,11.66s-14.58-5.6-15.45-11.83h5.48Z"/>
        <path class="cls-1" d="m166.15,79.35h5.13v-8.75h5.07v8.75h6.53v4.14h-6.53v17.32c0,2.92.7,4.37,3.38,4.37.7,0,1.75-.06,2.57-.23v3.85c-1.22.47-2.97.52-4.43.52-4.61,0-6.59-2.39-6.59-7.29v-18.54h-5.13v-4.14Z"/>
        <path class="cls-1" d="m211.51,100.28c0,2.92.06,6.88.06,8.63h-4.96c-.12-.76-.17-2.57-.23-4.43-1.46,3.26-4.26,5.13-8.92,5.13-5.01,0-9.79-2.51-9.79-10.84v-19.42h5.07v18.37c0,3.85,1.22,7.46,6.12,7.46,5.42,0,7.52-3.03,7.52-10.44v-15.39h5.13v20.93Z"/>
        <path class="cls-1" d="m244.85,66.12v34.46c0,2.74,0,5.48.06,8.34h-4.9c-.17-.76-.29-3.03-.29-4.2-1.46,3.09-4.43,4.9-9.27,4.9-7.64,0-12.3-6.18-12.3-15.16s5.07-15.8,13.24-15.8c5.25,0,7.58,2.1,8.34,3.79v-16.33h5.13Zm-13.35,39.18c6.88,0,8.45-5.13,8.45-11.6s-1.4-10.73-8.05-10.73c-5.25,0-8.45,4.14-8.45,11.31s3.38,11.02,8.05,11.02Z"/>
        <path class="cls-1" d="m253.54,72.47v-6.36h5.13v6.36h-5.13Zm0,6.88h5.13v29.56h-5.13v-29.56Z"/>
        <path class="cls-1" d="m292.78,94.05c0,8.57-4.9,15.57-13.93,15.57-8.45,0-13.58-6.53-13.58-15.45s5.01-15.51,13.93-15.51c8.22,0,13.58,6.12,13.58,15.39Zm-22.27.06c0,6.53,3.26,11.25,8.57,11.25s8.45-4.49,8.45-11.19-3.03-11.25-8.57-11.25-8.45,4.49-8.45,11.19Z"/>
      </g>
    </g>
  </g>
</svg>