<?xml version="1.0" encoding="UTF-8" standalone="no"?>
<!DOCTYPE svg PUBLIC "-//W3C//DTD SVG 1.1//EN" "http://www.w3.org/Graphics/SVG/1.1/DTD/svg11.dtd">
<svg width="100%" height="100%" viewBox="0 0 523 523" version="1.1" xmlns="http://www.w3.org/2000/svg" xmlns:xlink="http://www.w3.org/1999/xlink" xml:space="preserve" xmlns:serif="http://www.serif.com/" style="fill-rule:evenodd;clip-rule:evenodd;stroke-linejoin:round;stroke-miterlimit:2;">
    <g transform="matrix(1,0,0,1,-5411,-381.87)">
        <g transform="matrix(1,0,0,1,0,-578.13)">
            <rect id="Hollow-Star" serif:id="Hollow Star" x="5411" y="960" width="523" height="523" style="fill:none;"/>
            <g id="Hollow-Star1" serif:id="Hollow Star">
                <g transform="matrix(1.30406,0,0,1.30406,-1775.16,-391.644)">
                    <path d="M5717.17,1075.87C5717.17,1075.87 5748.19,1171.34 5755.26,1193.1L5878.53,1193.1C5881.27,1193.1 5883.7,1194.87 5884.55,1197.48C5885.4,1200.09 5884.47,1202.95 5882.25,1204.57C5882.25,1204.57 5782.53,1277.02 5782.53,1277.02L5820.62,1394.25C5821.47,1396.87 5820.54,1399.73 5818.32,1401.34C5816.09,1402.95 5813.09,1402.95 5810.86,1401.34C5810.86,1401.34 5729.65,1342.34 5711.14,1328.89L5611.41,1401.34C5609.19,1402.95 5606.19,1402.95 5603.96,1401.34C5601.74,1399.73 5600.81,1396.87 5601.66,1394.25C5601.66,1394.25 5632.68,1298.78 5639.75,1277.02L5540.03,1204.57C5537.81,1202.95 5536.88,1200.09 5537.73,1197.48C5538.57,1194.87 5541.01,1193.1 5543.75,1193.1C5543.75,1193.1 5667.02,1193.1 5667.02,1193.1L5705.11,1075.87C5705.96,1073.26 5708.39,1071.49 5711.14,1071.49C5713.89,1071.49 5716.32,1073.26 5717.17,1075.87ZM5711.14,1098.34L5677.65,1201.4C5676.8,1204.01 5674.37,1205.78 5671.62,1205.78L5563.26,1205.78L5650.93,1269.47C5653.15,1271.09 5654.08,1273.95 5653.23,1276.56L5619.74,1379.62L5707.41,1315.92C5709.64,1314.31 5712.64,1314.31 5714.86,1315.92L5802.53,1379.62L5769.05,1276.56C5768.2,1273.95 5769.13,1271.09 5771.35,1269.47L5859.02,1205.78L5750.65,1205.78C5747.91,1205.78 5745.47,1204.01 5744.63,1201.4L5711.14,1098.34Z" style="fill:#fff;"/>
                </g>
                <g transform="matrix(1.13734,0,0,1.13734,-822.981,-185.406)">
                    <path d="M5717.17,1075.87C5717.17,1075.87 5748.19,1171.34 5755.26,1193.1L5878.53,1193.1C5881.27,1193.1 5883.7,1194.87 5884.55,1197.48C5885.4,1200.09 5884.47,1202.95 5882.25,1204.57C5882.25,1204.57 5782.53,1277.02 5782.53,1277.02L5820.62,1394.25C5821.47,1396.87 5820.54,1399.73 5818.32,1401.34C5816.09,1402.95 5813.09,1402.95 5810.86,1401.34C5810.86,1401.34 5729.65,1342.34 5711.14,1328.89L5611.41,1401.34C5609.19,1402.95 5606.19,1402.95 5603.96,1401.34C5601.74,1399.73 5600.81,1396.87 5601.66,1394.25C5601.66,1394.25 5632.68,1298.78 5639.75,1277.02L5540.03,1204.57C5537.81,1202.95 5536.88,1200.09 5537.73,1197.48C5538.57,1194.87 5541.01,1193.1 5543.75,1193.1C5543.75,1193.1 5667.02,1193.1 5667.02,1193.1L5705.11,1075.87C5705.96,1073.26 5708.39,1071.49 5711.14,1071.49C5713.89,1071.49 5716.32,1073.26 5717.17,1075.87ZM5711.14,1098.34L5677.65,1201.4C5676.8,1204.01 5674.37,1205.78 5671.62,1205.78L5563.26,1205.78L5650.93,1269.47C5653.15,1271.09 5654.08,1273.95 5653.23,1276.56L5619.74,1379.62L5707.41,1315.92C5709.64,1314.31 5712.64,1314.31 5714.86,1315.92L5802.53,1379.62L5769.05,1276.56C5768.2,1273.95 5769.13,1271.09 5771.35,1269.47L5859.02,1205.78L5750.65,1205.78C5747.91,1205.78 5745.47,1204.01 5744.63,1201.4L5711.14,1098.34Z" style="fill:#fff;"/>
                </g>
                <g transform="matrix(0.996811,0,0,0.996811,-20.4268,-11.5743)">
                    <path d="M5717.17,1075.87C5717.17,1075.87 5748.19,1171.34 5755.26,1193.1L5878.53,1193.1C5881.27,1193.1 5883.7,1194.87 5884.55,1197.48C5885.4,1200.09 5884.47,1202.95 5882.25,1204.57C5882.25,1204.57 5782.53,1277.02 5782.53,1277.02L5820.62,1394.25C5821.47,1396.87 5820.54,1399.73 5818.32,1401.34C5816.09,1402.95 5813.09,1402.95 5810.86,1401.34C5810.86,1401.34 5729.65,1342.34 5711.14,1328.89L5611.41,1401.34C5609.19,1402.95 5606.19,1402.95 5603.96,1401.34C5601.74,1399.73 5600.81,1396.87 5601.66,1394.25C5601.66,1394.25 5632.68,1298.78 5639.75,1277.02L5540.03,1204.57C5537.81,1202.95 5536.88,1200.09 5537.73,1197.48C5538.57,1194.87 5541.01,1193.1 5543.75,1193.1C5543.75,1193.1 5667.02,1193.1 5667.02,1193.1L5705.11,1075.87C5705.96,1073.26 5708.39,1071.49 5711.14,1071.49C5713.89,1071.49 5716.32,1073.26 5717.17,1075.87ZM5711.14,1098.34L5677.65,1201.4C5676.8,1204.01 5674.37,1205.78 5671.62,1205.78L5563.26,1205.78L5650.93,1269.47C5653.15,1271.09 5654.08,1273.95 5653.23,1276.56L5619.74,1379.62L5707.41,1315.92C5709.64,1314.31 5712.64,1314.31 5714.86,1315.92L5802.53,1379.62L5769.05,1276.56C5768.2,1273.95 5769.13,1271.09 5771.35,1269.47L5859.02,1205.78L5750.65,1205.78C5747.91,1205.78 5745.47,1204.01 5744.63,1201.4L5711.14,1098.34Z" style="fill:#fff;"/>
                </g>
            </g>
        </g>
    </g>
</svg>
