<?xml version="1.0" encoding="UTF-8" standalone="no"?>
<!DOCTYPE svg PUBLIC "-//W3C//DTD SVG 1.1//EN" "http://www.w3.org/Graphics/SVG/1.1/DTD/svg11.dtd">
<svg width="100%" height="100%" viewBox="0 0 523 523" version="1.1" xmlns="http://www.w3.org/2000/svg" xmlns:xlink="http://www.w3.org/1999/xlink" xml:space="preserve" xmlns:serif="http://www.serif.com/" style="fill-rule:evenodd;clip-rule:evenodd;stroke-linecap:round;stroke-linejoin:round;stroke-miterlimit:1.5;">
    <g transform="matrix(1,0,0,1,-2592.55,0)">
        <g transform="matrix(1,0,0,1,-2818.45,-960)">
            <rect id="VideoIcon" x="5411" y="960" width="523" height="523" style="fill:none;"/>
            <g id="VideoIcon1" serif:id="VideoIcon">
                <g transform="matrix(1.15964,0,0,6.10462,2326.96,46.0119)">
                    <path d="M2965.77,190.28C2967.67,190.28 2969.22,190.573 2969.22,190.935L2969.22,214.115C2969.22,214.477 2967.68,214.77 2965.77,214.77L2804.22,214.77C2802.31,214.77 2800.77,214.477 2800.77,214.115L2800.77,190.935C2800.77,190.573 2802.31,190.28 2804.22,190.28L2965.77,190.28Z" style="fill:white;"/>
                </g>
                <g transform="matrix(1.09128,-0.39227,0.306162,0.851726,2457.12,2112.6)">
                    <path d="M2965.77,190.935L2804.22,190.935L2804.22,214.115L2965.77,214.115L2965.77,190.935" style="fill:white;stroke:white;stroke-width:8px;"/>
                </g>
                <g transform="matrix(1.1424,1.1424,-1.1424,1.1424,2571.63,-2443.38)">
                    <path d="M2947.37,266.387C2948.93,264.826 2951.46,264.826 2953.02,266.387C2954.59,267.948 2954.59,270.483 2953.02,272.044L2934.42,290.644C2932.86,292.205 2930.33,292.205 2928.77,290.644C2927.21,289.083 2927.21,286.548 2928.77,284.987L2947.37,266.387Z" style="fill:white;"/>
                </g>
                <g transform="matrix(1.1424,1.1424,-1.1424,1.1424,2636.37,-2443.38)">
                    <path d="M2947.37,266.387C2948.93,264.826 2951.46,264.826 2953.02,266.387C2954.59,267.948 2954.59,270.483 2953.02,272.044L2934.42,290.644C2932.86,292.205 2930.33,292.205 2928.77,290.644C2927.21,289.083 2927.21,286.548 2928.77,284.987L2947.37,266.387Z" style="fill:white;"/>
                </g>
                <g transform="matrix(1.1424,1.1424,-1.1424,1.1424,2700.49,-2443.38)">
                    <path d="M2947.37,266.387C2948.93,264.826 2951.46,264.826 2953.02,266.387C2954.59,267.948 2954.59,270.483 2953.02,272.044L2934.42,290.644C2932.86,292.205 2930.33,292.205 2928.77,290.644C2927.21,289.083 2927.21,286.548 2928.77,284.987L2947.37,266.387Z" style="fill:white;"/>
                </g>
            </g>
        </g>
    </g>
</svg>
